<svg xmlns="http://www.w3.org/2000/svg" width="1280" height="1196" version="1.0" viewBox="0 0 1280 1196"><path d="M689.7 5.7c6.4 4.3 11.2 8.8 10.2 9.8-.2.1-3.8-.6-7.9-1.7-8.2-2.1-18.4-2-27.3.2l-4.8 1.3 5.6 2.3c14.2 5.7 22.8 15 29.4 31.8 1.7 4.1 5.8 17.6 9.1 30.1 7.7 28.7 10.2 36.4 15.7 49.5 16.3 38.2 38.2 60.3 63.5 64.2 29.5 4.4 58.4-20.8 65.4-57 1.9-10 1.8-32.2-.2-42-8.2-39.8-41.6-66.7-102.9-82.7-12.7-3.3-43.3-8.7-56.5-10l-6.5-.6 7.2 4.8z"/><path d="M988.5 158.7c-27.8 3.4-46.8 15.9-62 40.7-16.5 27-39.7 52.3-63.3 69.3-10.8 7.8-31.6 18.2-44.2 22.1-19 6-24.5 6.7-49.5 6.7-21.3 0-24-.2-36.5-2.8-41.6-8.6-85.2-30-127-62.3-11.1-8.6-40-36.2-45.4-43.4l-2.6-3.5 2.5 8c10.2 33.5 27.2 69.6 45.5 97 43.8 65.3 105.5 104.4 177.9 112.6 15 1.7 48.4.7 63.6-2 73.5-12.6 137.4-54.8 180.2-119 19.4-29 39.3-76.6 39.3-93.8 0-3.5-.6-7.8-1.4-9.6-3.1-7.6-12.4-13.5-25.3-16.2-15.5-3.2-41.3-5.1-51.8-3.8z"/><path d="M436.5 286.6c-24.1 5.6-54.6 17.5-83.5 32.6-8.5 4.5-30.8 16.7-49.5 27.1-81.6 45.7-119.1 61.3-165.4 68.7l-7.3 1.2 5.6 2.3c9.1 3.7 16.2 8.5 25.2 16.9 15.7 14.6 31.4 36.4 58.4 81.1 16.4 27 23.9 38.2 30.9 45.8 6.3 6.8 9.6 8.7 14.7 8.7 3.3 0 4.5-.7 8.7-5.2 9.7-10.3 28.5-34.7 59.7-77.3 46.4-63.4 71.9-91 100.3-108.8 10.1-6.4 20.7-11 31.4-13.8 10.5-2.6 17.2-2.5 23.2.5 10 5.1 20.4 20.3 25.2 36.8 2.6 9.1 3.7 30.8 2 41.8-5.5 35.5-28.3 69.9-66.8 100.3-11.2 8.9-31.9 21.9-41.5 26.1-13.2 5.8-20.6 10.5-27.6 17.3-9.6 9.5-11.4 14-18 47.3-2.4 12.5-2.4 46.7.1 57 7 28.8 33.8 66.8 58.2 82.4 8.4 5.4 15 7.7 22 7.7 11.1 0 17.5-4.8 25.2-18.9 18.1-33.1 55.9-69.5 89.8-86.5 44.8-22.4 75.3-8.1 86.4 40.5 4.8 21.1 6 48.3 2.7 63.3-9.7 44.7-40 94-85.6 139.5-42.1 42.2-90.8 71.4-134 80.7-6.3 1.3-12.8 1.8-25.5 1.8-20.4-.1-28.4-1.8-44-9.5-35-17.1-57-51.8-72-113.2-7.8-32.1-19.2-58.7-38.5-89.8-16-25.6-34.1-48.3-61.8-77-31.9-33.2-58.4-57-102.2-91.6-21.4-16.9-73.8-56.2-79.8-59.8-1.9-1.1 12.9 18.8 44.2 59.7 65.1 84.9 83.7 111 106.1 148.2 8.8 14.7 25.5 46.7 31 59.5 3.8 8.8 11.5 28.8 11.5 29.9 0 .3-2.7-4.3-6.1-10.3-20.9-37.7-43.3-70.4-56.6-82.7-4.8-4.5-11-8.5-11.9-7.6-.2.2 5.7 8.4 13.3 18.3 40.4 52.8 52.2 80.6 61.3 144.7 2.2 15.7 6.2 33.1 12 52.9 32.1 109.8 102.3 191 184.4 213.3 32.5 8.8 62.3 9.2 98.6 1.4 92.4-20 165-75.4 216.1-164.8 28.6-50.1 50.4-114.5 60.9-179.6 7.1-43.7 7.9-94.1 2.4-136.8-.9-6.5-1.3-12.1-1.1-12.4 1-1 9.3 5.6 15.4 12.1 11.8 12.5 17.1 27.6 21.8 60.8 4.1 29.3 5.8 36.4 12.3 49.3 16.5 33 46.8 66.3 70.7 77.6 13.9 6.5 24.7 7.1 35.8 1.9 5.4-2.5 15.2-12.5 19.2-19.5 1.6-2.8 3-5.1 3.1-5.3.1-.2 1.4.4 2.9 1.4 4.9 3.2 13.3 4.4 32.1 4.4 24.2 0 55.1-3 97.3-9.6 9-1.4 16.5-2.3 16.7-2.1.7.6-23.5 13.8-35.3 19.3-14 6.6-28.2 12.2-40.3 16-12.5 3.9-9.9 4.4 8.1 1.3 91.8-15.3 170.9-78.7 216.4-173.2 22.9-47.6 33.8-93.3 33.8-141.7.1-88.3-41.4-153.1-114.7-178.9-24.1-8.5-48.1-12.3-78.6-12.3-22.3-.1-34.1.9-52 4.3-93.3 17.7-163.9 85.7-192.5 185.4-9.3 32.2-14 62.1-15.2 96.2-.3 10.1-.8 18.3-1.1 18.3-.2 0-2.4-1.8-4.9-4-10.1-8.8-22.8-15.6-42.9-22.9-6-2.1-11.7-4.2-12.6-4.6-.9-.4-2.1-2.8-2.9-5.8-3.8-16.1-11.3-35-19.6-49.7-16.4-28.9-39.2-46.5-68.3-52.6-13.5-2.9-35.9-2.5-52.5 1-11.9 2.5-33.5 9.2-46.2 14.4l-5.2 2.1 3.6-7.7c33.8-72.2 46.6-131.6 38.8-180.7C601.8 324.1 550 286.8 464 284.4c-15.1-.4-17.4-.2-27.5 2.2zm639.7 257.8c23 4.5 43 17 56.6 35.4 30.8 41.7 20 92.2-31.1 146-19 20-34.7 34.2-82.2 74.2-29.4 24.8-38 32.4-54.3 48.4-7.4 7.2-13.1 12.2-12.8 11.1 2.9-10.1 3.8-17 4.3-31.5.8-24.5-.9-33-14-70.3-15.3-43.2-16.9-59.7-8.5-85.7 22.2-68.5 60.7-115.1 103.7-126 4.2-1 8.7-2.1 10.1-2.3 5.9-1 21.4-.6 28.2.7z"/></svg>
