<?xml version="1.0" standalone="no"?>
<!DOCTYPE svg PUBLIC "-//W3C//DTD SVG 20010904//EN"
 "http://www.w3.org/TR/2001/REC-SVG-20010904/DTD/svg10.dtd">
<svg version="1.0" xmlns="http://www.w3.org/2000/svg"
 width="170.000000pt" height="170.000000pt" viewBox="0 0 170.000000 170.000000"
 preserveAspectRatio="xMidYMid meet">
<metadata>
Created by potrace 1.11, written by Peter Selinger 2001-2013
</metadata>
<g transform="translate(0.000000,170.000000) scale(0.100000,-0.100000)"
fill="#000000" stroke="none">
<path d="M0 850 l0 -850 850 0 850 0 0 850 0 850 -850 0 -850 0 0 -850z m1624
794 c14 -5 16 -44 16 -331 0 -213 -3 -322 -10 -318 -6 4 -10 120 -10 316 0
170 -3 310 -7 310 -38 6 -1513 5 -1524 -1 -15 -10 -16 -32 -18 -383 -1 -153
-5 -246 -10 -242 -14 8 -14 610 -1 635 11 20 24 20 780 20 422 0 775 -3 784
-6z m-16 -338 c2 -212 -1 -303 -9 -312 -9 -11 -8 -18 1 -29 10 -12 10 -21 2
-38 -6 -12 -14 -32 -17 -44 -4 -13 -11 -23 -16 -23 -6 0 -3 -10 5 -22 10 -13
16 -44 16 -75 0 -28 4 -54 8 -57 5 -3 8 -141 8 -308 l-1 -303 -215 0 -215 -1
199 3 c126 2 204 7 213 14 10 9 13 58 13 212 l0 201 -20 -22 c-20 -21 -29 -22
-175 -22 -126 0 -156 3 -169 16 -15 14 -18 14 -33 -1 -16 -16 -16 -18 0 -27
15 -8 17 -29 17 -166 0 -86 -5 -164 -10 -172 -7 -12 -41 -16 -160 -20 -143 -5
-176 -1 -192 23 -4 6 -13 4 -23 -6 -24 -24 -315 -25 -339 -1 -14 14 -18 13
-38 -5 l-22 -21 40 -2 c37 -1 38 -1 6 -5 -18 -3 -40 1 -47 7 -8 7 -36 11 -62
10 -26 -2 -89 -2 -140 -1 -81 1 -95 4 -113 23 -16 18 -20 19 -20 5 0 -9 10
-23 22 -32 l23 -16 -25 4 -25 4 -2 162 c-1 151 0 163 21 194 21 31 21 33 5 51
-17 17 -18 16 -22 -25 -2 -24 -4 18 -5 94 -1 86 2 137 8 137 6 0 10 26 10 59
0 39 5 63 15 71 13 11 13 14 0 27 -8 8 -15 23 -15 34 0 10 -4 19 -10 19 -15 0
-12 47 3 53 10 4 10 7 0 18 -10 10 -13 87 -13 316 l0 303 758 -2 757 -3 3
-299z m-1541 -378 c-2 -13 -4 -5 -4 17 -1 22 1 32 4 23 2 -10 2 -28 0 -40z
m1570 -5 c-3 -10 -5 -2 -5 17 0 19 2 27 5 18 2 -10 2 -26 0 -35z m-1556 -840
c9 -11 149 -13 765 -13 690 0 754 1 769 17 15 15 16 44 10 314 -4 207 -3 299
5 304 7 4 9 -90 8 -317 l-3 -323 -785 0 -785 0 0 325 0 325 2 -309 c2 -208 7
-314 14 -323z m787 10 c-10 -2 -26 -2 -35 0 -10 3 -2 5 17 5 19 0 27 -2 18 -5z"/>
<path d="M110 1585 c-20 -24 -6 -28 15 -5 10 11 13 20 8 20 -6 0 -16 -7 -23
-15z"/>
<path d="M462 1581 c7 -9 13 -17 14 -19 0 -1 8 6 17 16 16 18 16 19 -13 19
-25 0 -28 -3 -18 -16z"/>
<path d="M832 1581 c7 -9 13 -17 14 -19 0 -1 8 6 17 16 16 18 16 19 -13 19
-25 0 -28 -3 -18 -16z"/>
<path d="M1202 1581 c7 -9 13 -17 14 -19 0 -1 8 6 17 16 16 18 16 19 -13 19
-25 0 -28 -3 -18 -16z"/>
<path d="M1575 1580 c21 -24 26 -25 19 -6 -3 8 -13 17 -22 21 -13 5 -13 2 3
-15z"/>
<path d="M286 1485 c-3 -8 -12 -15 -21 -15 -20 0 -19 -18 2 -22 14 -2 16 -13
14 -60 -1 -35 2 -59 9 -63 20 -12 25 9 22 94 -3 76 -13 100 -26 66z"/>
<path d="M632 1488 c-14 -14 -16 -48 -2 -48 5 0 14 9 20 20 6 11 15 18 21 15
16 -10 10 -41 -12 -61 -30 -27 -53 -74 -41 -86 5 -5 26 -8 47 -6 47 4 61 28
16 28 -17 0 -31 3 -31 6 0 4 14 22 30 41 44 50 37 103 -15 103 -12 0 -26 -5
-33 -12z"/>
<path d="M1003 1493 c-15 -5 -18 -43 -4 -43 5 0 11 7 15 15 7 20 22 19 30 -2
5 -11 -1 -23 -15 -34 l-22 -17 22 -7 c17 -5 21 -13 19 -33 -4 -32 -27 -41 -35
-13 -6 23 -33 29 -33 7 0 -19 27 -46 46 -46 32 0 54 21 54 50 0 16 -5 32 -10
35 -7 4 -7 12 0 25 14 26 13 36 -6 54 -15 16 -37 19 -61 9z"/>
<path d="M1394 1488 c-15 -23 -54 -110 -54 -119 0 -5 14 -9 30 -9 23 0 30 -4
30 -20 0 -11 5 -20 10 -20 14 0 32 49 24 62 -4 6 -7 33 -8 61 -1 50 -16 71
-32 45z m2 -94 c-6 -16 -26 -19 -26 -5 0 5 5 22 12 38 11 27 12 27 16 5 2 -13
1 -30 -2 -38z"/>
<path d="M103 1220 c0 -28 1 -29 18 -14 15 14 16 18 4 30 -19 20 -22 18 -22
-16z"/>
<path d="M464 1236 c-8 -9 -8 -17 1 -29 11 -16 13 -16 28 1 13 14 13 19 1 30
-16 15 -16 15 -30 -2z"/>
<path d="M834 1236 c-8 -9 -8 -17 1 -29 11 -16 13 -16 28 1 13 14 13 19 1 30
-16 15 -16 15 -30 -2z"/>
<path d="M1204 1236 c-9 -9 -8 -17 2 -31 14 -18 14 -18 28 0 11 16 11 21 0 32
-15 16 -16 16 -30 -1z"/>
<path d="M1573 1236 c-9 -11 -8 -17 6 -30 17 -16 18 -15 17 14 -1 33 -5 36
-23 16z"/>
<path d="M630 1115 c-19 -23 -23 -105 -8 -135 27 -51 88 -28 88 34 0 38 -15
56 -47 56 -26 0 -30 12 -10 29 10 7 17 7 24 0 6 -6 17 -8 24 -4 9 6 7 11 -6
22 -25 17 -50 17 -65 -2z m45 -105 c0 -38 -20 -52 -30 -21 -8 27 3 63 18 58 7
-2 12 -19 12 -37z"/>
<path d="M1018 1123 c-48 -5 -50 -23 -2 -23 31 0 35 -3 29 -17 -35 -82 -44
-133 -25 -133 6 0 12 6 14 13 1 6 13 43 25 80 20 62 21 90 3 85 -4 -1 -24 -3
-44 -5z"/>
<path d="M1372 1117 c-6 -7 -11 -33 -11 -57 -1 -25 -1 -53 -1 -63 -2 -40 53
-64 78 -34 13 15 13 138 -1 155 -12 16 -52 16 -65 -1z m48 -38 c0 -10 -7 -19
-15 -19 -15 0 -21 31 -9 43 11 10 24 -3 24 -24z m-2 -80 c-1 -13 -7 -23 -13
-22 -13 3 -18 30 -11 50 10 24 29 1 24 -28z"/>
<path d="M250 1082 c0 -44 8 -56 26 -41 19 16 34 2 34 -31 0 -36 -16 -47 -30
-20 -13 25 -30 26 -30 2 0 -24 19 -42 46 -42 32 0 46 23 42 72 -3 40 -5 43
-35 46 -41 4 -34 32 8 32 16 0 29 5 29 10 0 6 -20 10 -45 10 l-45 0 0 -38z"/>
<path d="M464 866 c-8 -9 -8 -17 1 -29 11 -16 13 -16 28 1 13 14 13 19 1 30
-16 15 -16 15 -30 -2z"/>
<path d="M834 866 c-9 -9 -8 -17 2 -30 12 -17 14 -17 29 -2 15 14 15 18 1 31
-17 18 -18 18 -32 1z"/>
<path d="M1204 866 c-9 -9 -8 -17 2 -30 12 -17 14 -17 29 -2 15 14 15 18 1 31
-17 18 -18 18 -32 1z"/>
<path d="M262 748 c-16 -16 -16 -80 0 -96 7 -7 23 -12 35 -12 21 0 22 -3 13
-20 -9 -17 -14 -18 -30 -8 -26 16 -38 2 -17 -19 27 -27 69 -7 79 37 9 39 2 98
-14 118 -13 15 -50 16 -66 0z m46 -45 c-3 -42 -21 -51 -26 -15 -4 29 4 52 18
52 7 0 10 -15 8 -37z"/>
<path d="M610 745 c-7 -8 -19 -15 -26 -15 -8 0 -14 -4 -14 -10 0 -5 9 -10 20
-10 18 0 20 -7 20 -66 0 -48 3 -65 13 -62 8 3 13 33 15 91 3 86 -3 102 -28 72z"/>
<path d="M662 748 c-18 -18 -15 -133 4 -152 20 -20 48 -20 64 -1 16 19 14 133
-2 152 -13 16 -50 17 -66 1z m46 -73 c-4 -79 -22 -91 -26 -16 -3 59 2 81 18
81 7 0 10 -23 8 -65z"/>
<path d="M990 745 c-7 -8 -19 -15 -26 -15 -8 0 -14 -4 -14 -10 0 -5 9 -10 20
-10 18 0 20 -7 20 -66 0 -48 3 -65 13 -62 7 3 13 28 15 66 3 53 6 62 22 62 16
0 19 -9 22 -62 2 -38 8 -63 16 -66 9 -3 12 19 12 87 0 50 -3 91 -6 91 -3 0
-18 -9 -32 -21 l-27 -21 -3 21 c-4 25 -15 27 -32 6z"/>
<path d="M1346 745 c-3 -8 -12 -15 -21 -15 -8 0 -15 -4 -15 -10 0 -5 7 -10 15
-10 10 0 15 -16 17 -62 2 -38 8 -63 16 -66 9 -3 12 19 12 87 0 84 -9 113 -24
76z"/>
<path d="M1403 752 c-15 -10 -20 -44 -7 -49 6 -2 14 6 17 18 3 12 12 19 19 17
24 -8 19 -36 -11 -71 -30 -34 -44 -69 -28 -74 20 -7 87 -2 87 7 0 6 -13 10
-30 10 -16 0 -30 3 -30 6 0 4 14 22 30 41 31 35 38 71 18 91 -13 13 -47 16
-65 4z"/>
<path d="M462 494 c-11 -12 -10 -17 2 -30 15 -14 17 -14 32 0 14 14 14 18 0
31 -18 18 -18 18 -34 -1z"/>
<path d="M832 494 c-11 -12 -10 -17 2 -30 15 -14 17 -14 32 0 14 14 14 18 0
31 -18 18 -18 18 -34 -1z"/>
<path d="M240 375 c-7 -8 -19 -15 -26 -15 -8 0 -14 -4 -14 -10 0 -5 9 -10 20
-10 16 0 19 -8 22 -62 4 -92 23 -73 26 27 3 84 -4 100 -28 70z"/>
<path d="M292 378 c-14 -14 -16 -38 -2 -38 5 0 13 7 18 16 10 19 32 11 32 -11
0 -8 -8 -19 -17 -25 -17 -10 -17 -10 0 -20 21 -13 23 -60 3 -60 -8 0 -18 9
-21 20 -8 24 -25 17 -25 -11 0 -27 41 -45 68 -30 19 10 21 20 20 79 0 37 -5
73 -10 80 -13 15 -50 16 -66 0z"/>
<path d="M610 375 c-7 -8 -19 -15 -26 -15 -8 0 -14 -4 -14 -10 0 -5 9 -10 20
-10 16 0 19 -8 22 -62 4 -92 23 -73 26 27 3 84 -4 100 -28 70z"/>
<path d="M677 335 c-35 -72 -35 -85 3 -85 23 0 30 -4 30 -20 0 -11 5 -20 10
-20 6 0 10 9 10 19 0 11 6 21 13 24 10 4 10 7 0 18 -7 7 -13 37 -13 66 0 70
-18 69 -53 -2z m25 -57 c-22 -22 -32 3 -15 35 l18 32 3 -29 c2 -16 -1 -33 -6
-38z"/>
<path d="M980 375 c-7 -8 -19 -15 -26 -15 -8 0 -14 -4 -14 -10 0 -5 9 -10 20
-10 16 0 19 -8 22 -62 4 -92 23 -73 26 27 3 84 -4 100 -28 70z"/>
<path d="M1027 384 c-10 -11 -9 -82 2 -89 5 -3 12 -1 16 5 15 24 35 9 35 -24
0 -42 -15 -54 -30 -26 -14 26 -30 26 -30 0 0 -28 40 -46 69 -30 19 9 22 19 19
58 -3 44 -5 47 -35 52 -36 6 -33 26 5 31 12 2 24 9 25 14 2 12 -65 19 -76 9z"/>
</g>
</svg>
