<svg version="1.0" xmlns="http://www.w3.org/2000/svg" width="170pt" height="170pt" viewBox="0 0 170 170"><path d="M0 85v85h170V0H0v85zM162.4 5.6c1.4.5 1.6 4.4 1.6 33.1 0 21.3-.3 32.2-1 31.8-.6-.4-1-12-1-31.6 0-17-.3-31-.7-31C157.5 7.3 10 7.4 8.9 8c-1.5 1-1.6 3.2-1.8 38.3-.1 15.3-.5 24.6-1 24.2C4.7 69.7 4.7 9.5 6 7c1.1-2 2.4-2 78-2 42.2 0 77.5.3 78.4.6zm-1.6 33.8c.2 21.2-.1 30.3-.9 31.2-.9 1.1-.8 1.8.1 2.9 1 1.2 1 2.1.2 3.8-.6 1.2-1.4 3.2-1.7 4.4-.4 1.3-1.1 2.3-1.6 2.3-.6 0-.3 1 .5 2.2 1 1.3 1.6 4.4 1.6 7.5 0 2.8.4 5.4.8 5.7.5.3.8 14.1.8 30.8l-.1 30.3H139l-21.5.1 19.9-.3c12.6-.2 20.4-.7 21.3-1.4 1-.9 1.3-5.8 1.3-21.2v-20.1l-2 2.2c-2 2.1-2.9 2.2-17.5 2.2-12.6 0-15.6-.3-16.9-1.6-1.5-1.4-1.8-1.4-3.3.1-1.6 1.6-1.6 1.8 0 2.7 1.5.8 1.7 2.9 1.7 16.6 0 8.6-.5 16.4-1 17.2-.7 1.2-4.1 1.6-16 2-14.3.5-17.6.1-19.2-2.3-.4-.6-1.3-.4-2.3.6-2.4 2.4-31.5 2.5-33.9.1-1.4-1.4-1.8-1.3-3.8.5l-2.2 2.1 4 .2c3.7.1 3.8.1.6.5-1.8.3-4-.1-4.7-.7-.8-.7-3.6-1.1-6.2-1-2.6.2-8.9.2-14 .1-8.1-.1-9.5-.4-11.3-2.3-1.6-1.8-2-1.9-2-.5 0 .9 1 2.3 2.2 3.2l2.3 1.6-2.5-.4-2.5-.4-.2-16.2c-.1-15.1 0-16.3 2.1-19.4 2.1-3.1 2.1-3.3.5-5.1-1.7-1.7-1.8-1.6-2.2 2.5-.2 2.4-.4-1.8-.5-9.4-.1-8.6.2-13.7.8-13.7.6 0 1-2.6 1-5.9 0-3.9.5-6.3 1.5-7.1 1.3-1.1 1.3-1.4 0-2.7-.8-.8-1.5-2.3-1.5-3.4 0-1-.4-1.9-1-1.9-1.5 0-1.2-4.7.3-5.3 1-.4 1-.7 0-1.8-1-1-1.3-8.7-1.3-31.6V9l75.8.2 75.7.3.3 29.9zM6.7 77.2c-.2 1.3-.4.5-.4-1.7-.1-2.2.1-3.2.4-2.3.2 1 .2 2.8 0 4zm157 .5c-.3 1-.5.2-.5-1.7s.2-2.7.5-1.8c.2 1 .2 2.6 0 3.5zm-155.6 84C9 162.8 23 163 84.6 163c69 0 75.4-.1 76.9-1.7 1.5-1.5 1.6-4.4 1-31.4-.4-20.7-.3-29.9.5-30.4.7-.4.9 9 .8 31.7l-.3 32.3H6.5v-65l.2 30.9c.2 20.8.7 31.4 1.4 32.3zm78.7-1c-1 .2-2.6.2-3.5 0-1-.3-.2-.5 1.7-.5s2.7.2 1.8.5z"/><path d="M11 11.5c-2 2.4-.6 2.8 1.5.5 1-1.1 1.3-2 .8-2-.6 0-1.6.7-2.3 1.5zM46.2 11.9c.7.9 1.3 1.7 1.4 1.9 0 .1.8-.6 1.7-1.6 1.6-1.8 1.6-1.9-1.3-1.9-2.5 0-2.8.3-1.8 1.6zM83.2 11.9c.7.9 1.3 1.7 1.4 1.9 0 .1.8-.6 1.7-1.6 1.6-1.8 1.6-1.9-1.3-1.9-2.5 0-2.8.3-1.8 1.6zM120.2 11.9c.7.9 1.3 1.7 1.4 1.9 0 .1.8-.6 1.7-1.6 1.6-1.8 1.6-1.9-1.3-1.9-2.5 0-2.8.3-1.8 1.6zM157.5 12c2.1 2.4 2.6 2.5 1.9.6-.3-.8-1.3-1.7-2.2-2.1-1.3-.5-1.3-.2.3 1.5zM28.6 21.5c-.3.8-1.2 1.5-2.1 1.5-2 0-1.9 1.8.2 2.2 1.4.2 1.6 1.3 1.4 6-.1 3.5.2 5.9.9 6.3 2 1.2 2.5-.9 2.2-9.4-.3-7.6-1.3-10-2.6-6.6zM63.2 21.2c-1.4 1.4-1.6 4.8-.2 4.8.5 0 1.4-.9 2-2 .6-1.1 1.5-1.8 2.1-1.5 1.6 1 1 4.1-1.2 6.1-3 2.7-5.3 7.4-4.1 8.6.5.5 2.6.8 4.7.6 4.7-.4 6.1-2.8 1.6-2.8-1.7 0-3.1-.3-3.1-.6 0-.4 1.4-2.2 3-4.1 4.4-5 3.7-10.3-1.5-10.3-1.2 0-2.6.5-3.3 1.2zM100.3 20.7c-1.5.5-1.8 4.3-.4 4.3.5 0 1.1-.7 1.5-1.5.7-2 2.2-1.9 3 .2.5 1.1-.1 2.3-1.5 3.4l-2.2 1.7 2.2.7c1.7.5 2.1 1.3 1.9 3.3-.4 3.2-2.7 4.1-3.5 1.3-.6-2.3-3.3-2.9-3.3-.7 0 1.9 2.7 4.6 4.6 4.6 3.2 0 5.4-2.1 5.4-5 0-1.6-.5-3.2-1-3.5-.7-.4-.7-1.2 0-2.5 1.4-2.6 1.3-3.6-.6-5.4-1.5-1.6-3.7-1.9-6.1-.9zM139.4 21.2c-1.5 2.3-5.4 11-5.4 11.9 0 .5 1.4.9 3 .9 2.3 0 3 .4 3 2 0 1.1.5 2 1 2 1.4 0 3.2-4.9 2.4-6.2-.4-.6-.7-3.3-.8-6.1-.1-5-1.6-7.1-3.2-4.5zm.2 9.4c-.6 1.6-2.6 1.9-2.6.5 0-.5.5-2.2 1.2-3.8 1.1-2.7 1.2-2.7 1.6-.5.2 1.3.1 3-.2 3.8zM10.3 48c0 2.8.1 2.9 1.8 1.4 1.5-1.4 1.6-1.8.4-3-1.9-2-2.2-1.8-2.2 1.6zM46.4 46.4c-.8.9-.8 1.7.1 2.9 1.1 1.6 1.3 1.6 2.8-.1 1.3-1.4 1.3-1.9.1-3-1.6-1.5-1.6-1.5-3 .2zM83.4 46.4c-.8.9-.8 1.7.1 2.9 1.1 1.6 1.3 1.6 2.8-.1 1.3-1.4 1.3-1.9.1-3-1.6-1.5-1.6-1.5-3 .2zM120.4 46.4c-.9.9-.8 1.7.2 3.1 1.4 1.8 1.4 1.8 2.8 0 1.1-1.6 1.1-2.1 0-3.2-1.5-1.6-1.6-1.6-3 .1zM157.3 46.4c-.9 1.1-.8 1.7.6 3 1.7 1.6 1.8 1.5 1.7-1.4-.1-3.3-.5-3.6-2.3-1.6zM63 58.5c-1.9 2.3-2.3 10.5-.8 13.5 2.7 5.1 8.8 2.8 8.8-3.4 0-3.8-1.5-5.6-4.7-5.6-2.6 0-3-1.2-1-2.9 1-.7 1.7-.7 2.4 0 .6.6 1.7.8 2.4.4.9-.6.7-1.1-.6-2.2-2.5-1.7-5-1.7-6.5.2zM67.5 69c0 3.8-2 5.2-3 2.1-.8-2.7.3-6.3 1.8-5.8.7.2 1.2 1.9 1.2 3.7zM101.8 57.7c-4.8.5-5 2.3-.2 2.3 3.1 0 3.5.3 2.9 1.7C101 69.9 100.1 75 102 75c.6 0 1.2-.6 1.4-1.3.1-.6 1.3-4.3 2.5-8 2-6.2 2.1-9 .3-8.5-.4.1-2.4.3-4.4.5zM137.2 58.3c-.6.7-1.1 3.3-1.1 5.7-.1 2.5-.1 5.3-.1 6.3-.2 4 5.3 6.4 7.8 3.4 1.3-1.5 1.3-13.8-.1-15.5-1.2-1.6-5.2-1.6-6.5.1zm4.8 3.8c0 1-.7 1.9-1.5 1.9-1.5 0-2.1-3.1-.9-4.3 1.1-1 2.4.3 2.4 2.4zm-.2 8c-.1 1.3-.7 2.3-1.3 2.2-1.3-.3-1.8-3-1.1-5 1-2.4 2.9-.1 2.4 2.8zM25 61.8c0 4.4.8 5.6 2.6 4.1 1.9-1.6 3.4-.2 3.4 3.1 0 3.6-1.6 4.7-3 2-1.3-2.5-3-2.6-3-.2s1.9 4.2 4.6 4.2c3.2 0 4.6-2.3 4.2-7.2-.3-4-.5-4.3-3.5-4.6-4.1-.4-3.4-3.2.8-3.2 1.6 0 2.9-.5 2.9-1 0-.6-2-1-4.5-1H25v3.8zM46.4 83.4c-.8.9-.8 1.7.1 2.9 1.1 1.6 1.3 1.6 2.8-.1 1.3-1.4 1.3-1.9.1-3-1.6-1.5-1.6-1.5-3 .2zM83.4 83.4c-.9.9-.8 1.7.2 3 1.2 1.7 1.4 1.7 2.9.2 1.5-1.4 1.5-1.8.1-3.1-1.7-1.8-1.8-1.8-3.2-.1zM120.4 83.4c-.9.9-.8 1.7.2 3 1.2 1.7 1.4 1.7 2.9.2 1.5-1.4 1.5-1.8.1-3.1-1.7-1.8-1.8-1.8-3.2-.1zM26.2 95.2c-1.6 1.6-1.6 8 0 9.6.7.7 2.3 1.2 3.5 1.2 2.1 0 2.2.3 1.3 2-.9 1.7-1.4 1.8-3 .8-2.6-1.6-3.8-.2-1.7 1.9 2.7 2.7 6.9.7 7.9-3.7.9-3.9.2-9.8-1.4-11.8-1.3-1.5-5-1.6-6.6 0zm4.6 4.5c-.3 4.2-2.1 5.1-2.6 1.5-.4-2.9.4-5.2 1.8-5.2.7 0 1 1.5.8 3.7zM61 95.5c-.7.8-1.9 1.5-2.6 1.5-.8 0-1.4.4-1.4 1 0 .5.9 1 2 1 1.8 0 2 .7 2 6.6 0 4.8.3 6.5 1.3 6.2.8-.3 1.3-3.3 1.5-9.1.3-8.6-.3-10.2-2.8-7.2zM66.2 95.2c-1.8 1.8-1.5 13.3.4 15.2 2 2 4.8 2 6.4.1 1.6-1.9 1.4-13.3-.2-15.2-1.3-1.6-5-1.7-6.6-.1zm4.6 7.3c-.4 7.9-2.2 9.1-2.6 1.6-.3-5.9.2-8.1 1.8-8.1.7 0 1 2.3.8 6.5zM99 95.5c-.7.8-1.9 1.5-2.6 1.5-.8 0-1.4.4-1.4 1 0 .5.9 1 2 1 1.8 0 2 .7 2 6.6 0 4.8.3 6.5 1.3 6.2.7-.3 1.3-2.8 1.5-6.6.3-5.3.6-6.2 2.2-6.2s1.9.9 2.2 6.2c.2 3.8.8 6.3 1.6 6.6.9.3 1.2-1.9 1.2-8.7 0-5-.3-9.1-.6-9.1s-1.8.9-3.2 2.1l-2.7 2.1-.3-2.1c-.4-2.5-1.5-2.7-3.2-.6zM134.6 95.5c-.3.8-1.2 1.5-2.1 1.5-.8 0-1.5.4-1.5 1 0 .5.7 1 1.5 1 1 0 1.5 1.6 1.7 6.2.2 3.8.8 6.3 1.6 6.6.9.3 1.2-1.9 1.2-8.7 0-8.4-.9-11.3-2.4-7.6zM140.3 94.8c-1.5 1-2 4.4-.7 4.9.6.2 1.4-.6 1.7-1.8.3-1.2 1.2-1.9 1.9-1.7 2.4.8 1.9 3.6-1.1 7.1-3 3.4-4.4 6.9-2.8 7.4 2 .7 8.7.2 8.7-.7 0-.6-1.3-1-3-1-1.6 0-3-.3-3-.6 0-.4 1.4-2.2 3-4.1 3.1-3.5 3.8-7.1 1.8-9.1-1.3-1.3-4.7-1.6-6.5-.4zM46.2 120.6c-1.1 1.2-1 1.7.2 3 1.5 1.4 1.7 1.4 3.2 0 1.4-1.4 1.4-1.8 0-3.1-1.8-1.8-1.8-1.8-3.4.1zM83.2 120.6c-1.1 1.2-1 1.7.2 3 1.5 1.4 1.7 1.4 3.2 0 1.4-1.4 1.4-1.8 0-3.1-1.8-1.8-1.8-1.8-3.4.1zM24 132.5c-.7.8-1.9 1.5-2.6 1.5-.8 0-1.4.4-1.4 1 0 .5.9 1 2 1 1.6 0 1.9.8 2.2 6.2.4 9.2 2.3 7.3 2.6-2.7.3-8.4-.4-10-2.8-7zM29.2 132.2c-1.4 1.4-1.6 3.8-.2 3.8.5 0 1.3-.7 1.8-1.6 1-1.9 3.2-1.1 3.2 1.1 0 .8-.8 1.9-1.7 2.5-1.7 1-1.7 1 0 2 2.1 1.3 2.3 6 .3 6-.8 0-1.8-.9-2.1-2-.8-2.4-2.5-1.7-2.5 1.1 0 2.7 4.1 4.5 6.8 3 1.9-1 2.1-2 2-7.9 0-3.7-.5-7.3-1-8-1.3-1.5-5-1.6-6.6 0zM61 132.5c-.7.8-1.9 1.5-2.6 1.5-.8 0-1.4.4-1.4 1 0 .5.9 1 2 1 1.6 0 1.9.8 2.2 6.2.4 9.2 2.3 7.3 2.6-2.7.3-8.4-.4-10-2.8-7zM67.7 136.5c-3.5 7.2-3.5 8.5.3 8.5 2.3 0 3 .4 3 2 0 1.1.5 2 1 2 .6 0 1-.9 1-1.9 0-1.1.6-2.1 1.3-2.4 1-.4 1-.7 0-1.8-.7-.7-1.3-3.7-1.3-6.6 0-7-1.8-6.9-5.3.2zm2.5 5.7c-2.2 2.2-3.2-.3-1.5-3.5l1.8-3.2.3 2.9c.2 1.6-.1 3.3-.6 3.8zM98 132.5c-.7.8-1.9 1.5-2.6 1.5-.8 0-1.4.4-1.4 1 0 .5.9 1 2 1 1.6 0 1.9.8 2.2 6.2.4 9.2 2.3 7.3 2.6-2.7.3-8.4-.4-10-2.8-7zM102.7 131.6c-1 1.1-.9 8.2.2 8.9.5.3 1.2.1 1.6-.5 1.5-2.4 3.5-.9 3.5 2.4 0 4.2-1.5 5.4-3 2.6-1.4-2.6-3-2.6-3 0 0 2.8 4 4.6 6.9 3 1.9-.9 2.2-1.9 1.9-5.8-.3-4.4-.5-4.7-3.5-5.2-3.6-.6-3.3-2.6.5-3.1 1.2-.2 2.4-.9 2.5-1.4.2-1.2-6.5-1.9-7.6-.9z"/></svg>